<?xml version="1.0" encoding="UTF-8" standalone="no"?>
<!-- Created with Inkscape (http://www.inkscape.org/) -->

<svg
   width="165mm"
   height="30mm"
   viewBox="0 0 165 30"
   version="1.1"
   id="svg1"
   sodipodi:docname="splash.svg"
   inkscape:version="1.3.2 (091e20e, 2023-11-25, custom)"
   inkscape:export-filename="logo.png"
   inkscape:export-xdpi="96"
   inkscape:export-ydpi="96"
   xmlns:inkscape="http://www.inkscape.org/namespaces/inkscape"
   xmlns:sodipodi="http://sodipodi.sourceforge.net/DTD/sodipodi-0.dtd"
   xmlns="http://www.w3.org/2000/svg"
   xmlns:svg="http://www.w3.org/2000/svg">
  <sodipodi:namedview
     id="namedview1"
     pagecolor="#ffffff"
     bordercolor="#000000"
     borderopacity="0.25"
     inkscape:showpageshadow="2"
     inkscape:pageopacity="0.0"
     inkscape:pagecheckerboard="0"
     inkscape:deskcolor="#d1d1d1"
     inkscape:document-units="mm"
     showguides="true"
     inkscape:zoom="4"
     inkscape:cx="7.125"
     inkscape:cy="117.125"
     inkscape:window-width="3840"
     inkscape:window-height="2054"
     inkscape:window-x="-11"
     inkscape:window-y="-11"
     inkscape:window-maximized="1"
     inkscape:current-layer="layer1"
     showgrid="false">
    <sodipodi:guide
       position="23.027082,15.386032"
       orientation="0,-1"
       id="guide68"
       inkscape:locked="false" />
    <sodipodi:guide
       position="5.1830418,11.776824"
       orientation="1,0"
       id="guide69"
       inkscape:locked="false" />
    <sodipodi:guide
       position="32.941472,26.394367"
       orientation="0,-1"
       id="guide70"
       inkscape:locked="false" />
  </sodipodi:namedview>
  <defs
     id="defs1" />
  <g
     inkscape:label="Layer 1"
     inkscape:groupmode="layer"
     id="layer1"
     transform="translate(-66.874621,-89.467575)">
    <g
       id="g1"
       transform="translate(0.74635207,0.33363716)">
      <path
         style="font-size:35.2778px;font-family:Bahnschrift;-inkscape-font-specification:'Bahnschrift, Normal';stroke-width:0.264583"
         d="m 106.11264,118.63584 c -1.74552,0 -3.27284,-0.3847 -4.58198,-1.15411 -1.30914,-0.78089 -2.325441,-1.87184 -3.048911,-3.27284 -0.723471,-1.40101 -1.085206,-3.03743 -1.085206,-4.90927 v -6.87297 l -10e-7,-4.926486 v -4.426961 c 1.553752,0 6.970578,10e-6 8.716098,10e-6 1.44694,0 2.76756,0.310059 3.96186,0.930177 1.20579,0.620117 2.21061,1.487134 3.01446,2.601049 0.81534,1.113915 1.36656,2.41731 1.65365,3.910191 v 0 h -3.60013 v 0 c -0.21819,-0.803862 -0.58566,-1.504365 -1.10243,-2.101515 -0.50528,-0.608634 -1.10243,-1.079464 -1.79145,-1.41249 -0.68902,-0.333026 -1.401,-0.499539 -2.13596,-0.499539 -1.53881,0 -2.77904,0.545474 -3.7207,1.636421 -0.93018,1.079464 -1.39527,2.509183 -1.39527,4.289143 v 6.87297 c 0,1.77997 0.46509,3.20969 1.39527,4.28915 0.94166,1.07947 2.18189,1.6192 3.7207,1.6192 1.09095,0 2.11874,-0.34451 3.08336,-1.03353 0.96463,-0.68902 1.61346,-1.68236 1.94648,-2.98001 v 0 h 3.60013 v 0 c -0.28709,1.49287 -0.83831,2.79627 -1.65365,3.91018 -0.81534,1.11392 -1.82016,1.98094 -3.01446,2.60105 -1.1943,0.62012 -2.51492,0.93018 -3.96186,0.93018 z m 20.1366,0 c -2.34267,0 -4.15709,-0.67754 -5.44326,-2.03261 -1.28617,-1.36655 -1.92925,-3.28432 -1.92925,-5.75331 v -2.91111 c 0,-2.44602 0.64308,-4.34082 1.92925,-5.68441 1.28617,-1.34359 3.10059,-2.01538 5.44326,-2.01538 2.34266,0 4.15708,0.67179 5.44325,2.01538 1.28617,1.34359 1.92925,3.23839 1.92925,5.68441 v 2.96278 c 0,2.45751 -0.64308,4.36379 -1.92925,5.71887 -1.28617,1.34359 -3.10059,2.01538 -5.44325,2.01538 z m 0,-3.34175 c 1.22875,0 2.17615,-0.3847 2.8422,-1.1541 0.67754,-0.76941 1.01631,-1.84887 1.01631,-3.2384 v -2.96278 c 0,-1.38952 -0.33877,-2.46325 -1.01631,-3.22117 -0.66605,-0.75792 -1.61345,-1.13688 -2.8422,-1.13688 -1.21727,0 -2.16467,0.37896 -2.84221,1.13688 -0.67754,0.75793 -1.0163,1.83165 -1.0163,3.22117 v 2.96278 c 0,1.38953 0.33877,2.46899 1.0163,3.2384 0.67754,0.7694 1.62494,1.1541 2.84221,1.1541 z m 15.8819,-19.998794 v 18.465734 c 0,0.42489 0.0919,0.75792 0.27561,0.99907 0.19522,0.24116 0.46509,0.36174 0.8096,0.36174 h 1.65364 v 3.34174 h -2.06706 c -1.32062,0 -2.3484,-0.41341 -3.08336,-1.24023 -0.73495,-0.82682 -1.10243,-1.99242 -1.10243,-3.49678 V 93.331596 Z m 10.21471,0 v 18.465734 c 0,0.42489 0.0919,0.75792 0.27561,0.99907 0.19523,0.24116 0.46509,0.36174 0.8096,0.36174 h 1.65365 v 3.34174 h -2.06706 c -1.32062,0 -2.34841,-0.41341 -3.08336,-1.24023 -0.73496,-0.82682 -1.10243,-1.99242 -1.10243,-3.49678 V 93.331596 Z m 14.02155,23.340544 c -2.49195,0 -4.42121,-0.69476 -5.78776,-2.08428 -1.36656,-1.38953 -2.04984,-3.36472 -2.04984,-5.92557 v -2.01539 c 0,-2.6642 0.65457,-4.72552 1.96371,-6.18395 1.32062,-1.45842 3.17523,-2.18763 5.56383,-2.18763 2.2508,0 3.99058,0.82682 5.21933,2.48047 1.24023,1.65364 1.86035,3.97334 1.86035,6.95909 v 1.17134 h -12.05784 v -2.82498 h 8.71609 v 0 c -0.10335,-1.44694 -0.48231,-2.57808 -1.13688,-3.39342 -0.64308,-0.81534 -1.5101,-1.22301 -2.60105,-1.22301 -1.32062,0 -2.34841,0.43638 -3.08336,1.30913 -0.73495,0.87276 -1.10243,2.10725 -1.10243,3.70348 v 2.27377 c 0,1.48139 0.39044,2.61827 1.17133,3.41065 0.79238,0.79237 1.90055,1.18855 3.32452,1.18855 0.71199,0 1.41823,-0.14354 2.11874,-0.43063 0.7005,-0.28709 1.32636,-0.68902 1.87758,-1.20579 v 0 l 2.30821,2.30822 v 0 c -0.88424,0.84979 -1.87758,1.5101 -2.98001,1.98093 -1.10243,0.45935 -2.2106,0.68902 -3.32452,0.68902 z m 18.81024,0 c -2.4575,0 -4.36379,-0.67754 -5.71886,-2.03261 -1.34359,-1.35507 -2.01538,-3.2671 -2.01538,-5.73609 v -2.94556 c 0,-2.44601 0.67179,-4.33508 2.01538,-5.66718 1.35507,-1.34359 3.26136,-2.01538 5.71886,-2.01538 1.40101,0 2.66421,0.2469 3.78961,0.74069 1.1254,0.4938 2.02113,1.20005 2.68718,2.11874 v 0 l -2.53215,2.27376 v 0 c -0.4938,-0.57418 -1.07947,-1.0163 -1.757,-1.32636 -0.67753,-0.31006 -1.38952,-0.46509 -2.13596,-0.46509 -1.35507,0 -2.40583,0.37896 -3.15227,1.13688 -0.74643,0.75792 -1.11965,1.82591 -1.11965,3.20394 v 2.94556 c 0,1.41249 0.37322,2.50344 1.11965,3.27285 0.74644,0.7694 1.7972,1.1541 3.15227,1.1541 0.74644,0 1.45843,-0.16651 2.13596,-0.49954 0.67753,-0.33302 1.2632,-0.80385 1.757,-1.41249 v 0 l 2.53215,2.44602 v 0 c -0.66605,0.89573 -1.56752,1.59049 -2.70441,2.08429 -1.12539,0.48231 -2.38285,0.72347 -3.77238,0.72347 z m 15.0034,-0.17226 c -1.46991,0 -2.53789,-0.40767 -3.20394,-1.22301 -0.65457,-0.81534 -0.98185,-1.98667 -0.98185,-3.514 V 95.295302 h 3.514 v 18.465728 c 0,0.42489 0.0861,0.75792 0.25838,0.99907 0.17225,0.24116 0.42489,0.36174 0.75792,0.36174 h 1.6881 v 3.34174 z m -6.02892,-14.79669 v -3.16949 h 8.06153 v 3.16949 z m 12.88467,-6.821294 v -3.514 h 3.514 v 3.514 z m 0,21.531864 V 100.4974 h 3.514 v 17.88006 z m 15.0034,-5.11597 4.37527,-12.76409 h 3.66903 l -6.71794,17.88006 h -2.65272 l -6.71794,-17.88006 h 3.66902 z"
         id="text1"
         aria-label="Collectiv"
         sodipodi:nodetypes="scsssscsccsccscsscsscsssccssssscssssssscsscsscsssssscscsccssscccscsccsssccsssscscsccccscsssscsssccscsscsscsssccssssssssssccscsscsccsssccsccccccccccccccccccccccc" />
      <rect
         style="fill:#00d400;stroke:#000000;stroke-width:1;stroke-dasharray:none;stroke-opacity:1"
         id="rect17"
         width="10.126398"
         height="10.4881"
         x="72.057663"
         y="106.90404" />
      <rect
         style="fill:#ccffcc;fill-opacity:1;stroke:#000000;stroke-width:1;stroke-dasharray:8, 1;stroke-dashoffset:0;stroke-opacity:1"
         id="rect17-0"
         width="10.126398"
         height="10.4881"
         x="21.31966"
         y="114.2947"
         transform="rotate(-25)" />
      <rect
         style="fill:#00d400;stroke:#000000;stroke-width:1;stroke-dasharray:none;stroke-opacity:1"
         id="rect17-7"
         width="10.111455"
         height="10.472623"
         x="84.845978"
         y="106.91177" />
      <rect
         style="fill:#00d400;stroke:#000000;stroke-width:1;stroke-dasharray:none;stroke-opacity:1"
         id="rect17-73"
         width="10.145494"
         height="10.507877"
         x="84.828957"
         y="93.573669" />
      <rect
         style="fill:#000000;fill-opacity:1;stroke:#000000;stroke-width:0;stroke-linecap:butt;stroke-linejoin:miter;stroke-dasharray:4.74684, 0.39557;stroke-dashoffset:0;stroke-opacity:1"
         id="rect67"
         width="2.6138403"
         height="7.4083333"
         x="25.075941"
         y="115.83458"
         transform="rotate(-25)" />
      <rect
         style="fill:#000000;fill-opacity:1;stroke:#000000;stroke-width:0;stroke-linecap:butt;stroke-linejoin:miter;stroke-dasharray:4.74684, 0.39557;stroke-dashoffset:0;stroke-opacity:1"
         id="rect67-9"
         width="2.6138403"
         height="7.4083333"
         x="118.23182"
         y="-30.087027"
         transform="rotate(65)" />
    </g>
  </g>
</svg>
